<?xml version="1.0" encoding="UTF-8"?>
<!DOCTYPE svg PUBLIC "-//W3C//DTD SVG 1.1//EN" "http://www.w3.org/Graphics/SVG/1.1/DTD/svg11.dtd">
<svg version="1.1" xmlns="http://www.w3.org/2000/svg" xmlns:xlink="http://www.w3.org/1999/xlink" x="0" y="0" width="512" height="512" viewBox="0, 0, 512, 512">
  <defs>
    <linearGradient id="Gradient_1" gradientUnits="userSpaceOnUse" x1="34.298" y1="128" x2="477.702" y2="384">
      <stop offset="0" stop-color="#00FFD4"/>
      <stop offset="1" stop-color="#00D6BE" stop-opacity="0.959"/>
    </linearGradient>
    <linearGradient id="Gradient_2" gradientUnits="userSpaceOnUse" x1="215.179" y1="351.93" x2="436.861" y2="415.07">
      <stop offset="0.023" stop-color="#00FFC6"/>
      <stop offset="1" stop-color="#00D0B0"/>
    </linearGradient>
  </defs>
  <g id="Layer_1">
    <path d="M446,0 C482.451,0 512,29.549 512,66 L512,446 C512,482.451 482.451,512 446,512 L66,512 C29.549,512 0,482.451 0,446 L0,66 C0,29.549 29.549,0 66,0 L446,0 z M424.105,29.5 L87.895,29.5 C55.644,29.5 29.5,55.644 29.5,87.895 L29.5,424.105 C29.5,456.356 55.644,482.5 87.895,482.5 L424.105,482.5 C456.356,482.5 482.5,456.356 482.5,424.105 L482.5,87.895 C482.5,55.644 456.356,29.5 424.105,29.5 z" fill="url(#Gradient_1)"/>
    <path d="M246.52,338.6 L246.52,455 L277.92,455 L277.92,338.6 L320.72,338.6 L320.72,312.2 L203.72,312.2 L203.72,338.6 z M358.52,407.6 L328.12,407.6 Q327.92,420.8 332.92,430.4 Q337.92,440 346.42,446.2 Q354.92,452.4 366.02,455.3 Q377.12,458.2 388.92,458.2 Q403.52,458.2 414.62,454.8 Q425.72,451.4 433.22,445.3 Q440.72,439.2 444.52,430.8 Q448.32,422.4 448.32,412.6 Q448.32,400.6 443.22,392.9 Q438.12,385.2 431.12,380.6 Q424.12,376 417.02,373.9 Q409.92,371.8 405.92,371 Q392.52,367.6 384.22,365.4 Q375.92,363.2 371.22,361 Q366.52,358.8 364.92,356.2 Q363.32,353.6 363.32,349.4 Q363.32,344.8 365.32,341.8 Q367.32,338.8 370.42,336.8 Q373.52,334.8 377.32,334 Q381.12,333.2 384.92,333.2 Q390.72,333.2 395.62,334.2 Q400.52,335.2 404.32,337.6 Q408.12,340 410.42,344.2 Q412.72,348.4 413.12,354.8 L443.52,354.8 Q443.52,342.4 438.82,333.7 Q434.12,325 426.12,319.4 Q418.12,313.8 407.82,311.3 Q397.52,308.8 386.32,308.8 Q376.72,308.8 367.12,311.4 Q357.52,314 349.92,319.4 Q342.32,324.8 337.62,332.9 Q332.92,341 332.92,352 Q332.92,361.8 336.62,368.7 Q340.32,375.6 346.32,380.2 Q352.32,384.8 359.92,387.7 Q367.52,390.6 375.52,392.6 Q383.32,394.8 390.92,396.6 Q398.52,398.4 404.52,400.8 Q410.52,403.2 414.22,406.8 Q417.92,410.4 417.92,416.2 Q417.92,421.6 415.12,425.1 Q412.32,428.6 408.12,430.6 Q403.92,432.6 399.12,433.3 Q394.32,434 390.12,434 Q383.92,434 378.12,432.5 Q372.32,431 368.02,427.9 Q363.72,424.8 361.12,419.8 Q358.52,414.8 358.52,407.6 z" fill="url(#Gradient_2)"/>
  </g>
</svg>
